<?xml version="1.0" standalone="no"?><!DOCTYPE svg PUBLIC "-//W3C//DTD SVG 1.1//EN" "http://www.w3.org/Graphics/SVG/1.1/DTD/svg11.dtd"><svg t="1582903526874" class="icon" viewBox="0 0 1024 1024" version="1.1" xmlns="http://www.w3.org/2000/svg" p-id="1631" width="200" height="200" xmlns:xlink="http://www.w3.org/1999/xlink"><defs><style type="text/css"></style></defs><path d="M512 569.088A369.408 369.408 0 0 1 140.032 202.752h84.736A281.6 281.6 0 0 0 512 479.488 281.6 281.6 0 0 0 799.232 202.752h84.736A369.408 369.408 0 0 1 512 569.088zM241.92 672.512h544.768v89.6H241.92z" fill="#000000" p-id="1632"></path><path d="M469.504 115.712h89.6v792.832h-89.6z" fill="#000000" p-id="1633"></path><path d="M514.304 115.712m-44.8 0a44.8 44.8 0 1 0 89.6 0 44.8 44.8 0 1 0-89.6 0Z" fill="#000000" p-id="1634"></path><path d="M841.472 203.52m-42.496 0a42.496 42.496 0 1 0 84.992 0 42.496 42.496 0 1 0-84.992 0Z" fill="#000000" p-id="1635"></path><path d="M182.528 203.52m-42.496 0a42.496 42.496 0 1 0 84.992 0 42.496 42.496 0 1 0-84.992 0Z" fill="#000000" p-id="1636"></path><path d="M786.944 717.312m-44.8 0a44.8 44.8 0 1 0 89.6 0 44.8 44.8 0 1 0-89.6 0Z" fill="#000000" p-id="1637"></path><path d="M241.92 717.312m-44.8 0a44.8 44.8 0 1 0 89.6 0 44.8 44.8 0 1 0-89.6 0Z" fill="#000000" p-id="1638"></path><path d="M514.304 908.288m-44.8 0a44.8 44.8 0 1 0 89.6 0 44.8 44.8 0 1 0-89.6 0Z" fill="#000000" p-id="1639"></path></svg>