<?xml version="1.0" standalone="no"?><!DOCTYPE svg PUBLIC "-//W3C//DTD SVG 1.1//EN" "http://www.w3.org/Graphics/SVG/1.1/DTD/svg11.dtd"><svg t="1600360953580" class="icon" viewBox="0 0 1024 1024" version="1.1" xmlns="http://www.w3.org/2000/svg" p-id="9179" xmlns:xlink="http://www.w3.org/1999/xlink" width="200" height="200"><defs><style type="text/css"></style></defs><path d="M900.752 282.354c-36.104 0-65.428 29.606-65.428 66.232 0 11.193 3.053 21.62 7.885 30.906-32.696 23.394-71.772 36.76-112.575 36.76-91.394 0-167.724-64.032-189.12-149.98 21.396-10.9 36.238-33.082 36.238-58.988 0-36.558-29.329-66.231-65.39-66.231-36.193 0-65.433 29.674-65.433 66.231 0 25.905 14.751 48.087 36.195 58.988-21.352 85.948-97.73 149.98-189.124 149.98-37.611 0-73.807-11.818-105.016-31.983 6.512-10.34 10.432-22.563 10.432-35.683 0-36.626-29.262-66.232-65.434-66.232-36.105 0-65.41 29.606-65.41 66.232 0 34.72 26.537 62.935 60.161 65.693L301.886 844.08h420.466l175.17-429.622c1.063 0.09 2.125 0.362 3.23 0.362 36.154 0 65.436-29.675 65.436-66.233 0-36.627-29.282-66.233-65.436-66.233M693.2 798.144H331.168L188.78 437.289c32.54 16.015 68.423 24.897 105.216 24.897 96.888 0 180.088-58.539 218.365-142.22 38.188 83.682 121.386 142.22 218.273 142.22 37.703 0 74.165-9.15 107.082-25.727L693.2 798.144z" fill="#333333" p-id="9180"></path></svg>