<?xml version="1.0" standalone="no"?><!DOCTYPE svg PUBLIC "-//W3C//DTD SVG 1.1//EN" "http://www.w3.org/Graphics/SVG/1.1/DTD/svg11.dtd"><svg t="1594818064108" class="icon" viewBox="0 0 1024 1024" version="1.1" xmlns="http://www.w3.org/2000/svg" p-id="2083" xmlns:xlink="http://www.w3.org/1999/xlink" width="16" height="16"><defs><style type="text/css"></style></defs><path d="M509.952 715.264L240.64 527.36l-0.512-0.512c19.968 49.664 162.304 412.672 162.304 412.672H614.4s162.816-408.576 159.744-408.576l-264.192 184.32z" fill="#070707" p-id="2084"></path><path d="M933.376 129.024c-0.512-1.024-0.512-1.536-1.024-2.56 0 0 0 0.512 0.512 2.048 0 0 1.024 4.608 1.024 12.288 1.024 28.672-6.656 92.16-86.528 101.888h-0.512c-5.632 0.512-11.264 1.024-17.408 1.024-2.048-1.536-3.584-2.56-5.632-4.096s-4.608-2.56-7.168-4.096c-1.536-0.512-3.072-1.536-5.12-2.048-3.072-1.024-6.656-2.048-10.24-3.072-1.536-0.512-3.584-0.512-5.632-1.024-7.68-1.024-19.456-3.072-34.304-5.632-9.216-1.536-18.944-3.584-29.696-5.632-3.584-0.512-7.168-1.536-11.264-2.048-24.576-4.608-51.712-9.728-77.824-15.36-6.144-1.024-12.288-2.56-17.92-3.584-2.048-0.512-4.096-1.024-6.144-1.024-57.344-11.776-96.256-21.504-96.256-21.504l-146.432 23.552-137.216 23.552s-1.536 0-4.608 0.512h-1.536c-2.56 0.512-6.144 0.512-10.24 1.024-1.024 0-1.536 0-2.56 0.512-1.536 0-3.584 0.512-5.12 1.024-7.168 1.024-14.336 3.072-21.504 5.12-3.584 1.024-6.656 2.56-9.728 3.584-1.536 0.512-3.072 1.536-4.096 2.048-1.024 0.512-2.56 1.536-3.584 2.56l-1.536 1.536c-0.512 0.512-1.536 1.024-3.072 1.536-101.376-13.824-82.944-115.712-82.944-115.712-33.28 24.576-54.272 75.776-48.128 133.12 1.536 14.336 4.608 27.136 8.192 38.4 1.024 2.56 1.536 5.12 2.56 7.68 7.68 19.968 20.48 34.816 35.328 46.08 30.208 24.576 66.56 30.72 80.384 31.744 0.512 1.536 0.512 2.56 1.024 4.096l343.04 234.496 339.968-233.472c0.512-1.024 0.512-2.56 1.024-3.584v5.12c0.512-1.536 0.512-2.56 1.024-4.096 13.824-1.536 50.176-7.168 80.384-31.744 14.848-11.264 27.648-26.112 35.328-46.08 1.024-2.56 2.048-5.12 2.56-7.68 2.048-6.144 4.096-12.8 5.632-19.968v-0.512c0-1.024 0.512-2.048 0.512-3.072 1.536-9.216 3.072-18.944 3.072-30.208v-2.56-2.56c1.536-0.512 1.536-1.024 1.536-2.048v-2.048c-1.024-46.592-19.968-86.528-48.128-107.52z" fill="#070707" p-id="2085"></path></svg>